HIERARCHY
ROOT Hips
{
 OFFSET 0.000000 0.000000 0.000000
 CHANNELS 6 Xposition Yposition Zposition Yrotation Xrotation Zrotation
 JOINT Chest
 {
  OFFSET 0.000000 9.585900 0.002600
  CHANNELS 3 Yrotation Xrotation Zrotation
  JOINT Chest2
  {
   OFFSET 0.000000 9.601200 -0.005300
   CHANNELS 3 Yrotation Xrotation Zrotation
   JOINT Chest3
   {
    OFFSET 0.000000 9.561800 0.000000
    CHANNELS 3 Yrotation Xrotation Zrotation
    JOINT Chest4
    {
     OFFSET 0.000000 9.552100 0.000000
     CHANNELS 3 Yrotation Xrotation Zrotation
     JOINT Neck
     {
      OFFSET 0.000000 14.453000 0.000000
      CHANNELS 3 Yrotation Xrotation Zrotation
      JOINT Head
      {
       OFFSET 0.000000 8.936500 -0.011300
       CHANNELS 3 Yrotation Xrotation Zrotation
       End Site
       {
        OFFSET 0.000000 17.073600 -0.006000
       }
      }
     }
     JOINT RightCollar
     {
      OFFSET -2.921100 9.558500 0.000000
      CHANNELS 3 Yrotation Xrotation Zrotation
      JOINT RightShoulder
      {
       OFFSET -13.519700 0.000000 0.000000
       CHANNELS 3 Yrotation Xrotation Zrotation
       JOINT RightElbow
       {
        OFFSET 0.000000 -29.696600 0.000000
        CHANNELS 3 Yrotation Xrotation Zrotation
        JOINT RightWrist
        {
         OFFSET 0.000000 -24.004700 0.000000
         CHANNELS 3 Yrotation Xrotation Zrotation
         End Site
         {
          OFFSET 0.000000 -17.728500 0.000000
         }
        }
       }
      }
     }
     JOINT LeftCollar
     {
      OFFSET 2.921100 9.558500 0.000000
      CHANNELS 3 Yrotation Xrotation Zrotation
      JOINT LeftShoulder
      {
       OFFSET 13.519700 0.000000 0.000000
       CHANNELS 3 Yrotation Xrotation Zrotation
       JOINT LeftElbow
       {
        OFFSET 0.000000 -29.696600 0.000000
        CHANNELS 3 Yrotation Xrotation Zrotation
        JOINT LeftWrist
        {
         OFFSET 0.000000 -24.004700 0.000000
         CHANNELS 3 Yrotation Xrotation Zrotation
         End Site
         {
          OFFSET 0.000000 -17.728500 0.000000
         }
        }
       }
      }
     }
    }
   }
  }
 }
 JOINT RightHip
 {
  OFFSET -7.771700 -0.012900 -0.001300
  CHANNELS 3 Yrotation Xrotation Zrotation
  JOINT RightKnee
  {
   OFFSET 0.000000 -40.869800 0.001200
   CHANNELS 3 Yrotation Xrotation Zrotation
   JOINT RightAnkle
   {
    OFFSET 0.000000 -39.717900 0.002100
    CHANNELS 3 Yrotation Xrotation Zrotation
    JOINT RightToe
    {
     OFFSET 0.000000 -4.965400 11.033500
     CHANNELS 3 Yrotation Xrotation Zrotation
     End Site
     {
      OFFSET 0.000000 -1.423100 5.872300
     }
    }
   }
  }
 }
 JOINT LeftHip
 {
  OFFSET 7.771700 -0.012900 -0.001300
  CHANNELS 3 Yrotation Xrotation Zrotation
  JOINT LeftKnee
  {
   OFFSET 0.000000 -40.869800 0.001200
   CHANNELS 3 Yrotation Xrotation Zrotation
   JOINT LeftAnkle
   {
    OFFSET 0.000000 -39.717900 0.002100
    CHANNELS 3 Yrotation Xrotation Zrotation
    JOINT LeftToe
    {
     OFFSET 0.000000 -4.965400 11.033500
     CHANNELS 3 Yrotation Xrotation Zrotation
     End Site
     {
      OFFSET 0.000000 -1.423100 5.872300
     }
    }
   }
  }
 }
}
MOTION
Frames: 15
Frame Time: 0.008333
18.528720 49.954433 56.433388 173.025402 -31.594440 -6.889681 5.956149 19.073437 6.718133 0.648975 2.497190 0.626320 1.075542 4.062287 1.025915 4.979401 16.484239 4.794546 -2.940579 17.314352 1.429758 -5.910324 -3.512056 3.630056 -2.703600 -3.153174 -6.571075 3.477783 -1.188677 -4.661796 -135.186600 -62.429098 137.912351 3.838172 -1.852388 75.542486 -9.129646 -1.539726 -0.341255 6.216103 -5.254815 1.135361 116.570839 -58.875258 -130.474384 5.085225 22.391376 -89.781100 -0.892126 -48.835847 10.555610 -122.367806 84.532193 -110.696351 -1.424177 -13.446015 -3.772406 -0.098994 0.972678 -0.058710 -9.803789 -52.788055 17.360916 -153.771331 80.846205 -161.361030 0.610593 -16.577000 7.717254 -0.355182 -0.645601 -0.148299
18.528755 49.953453 56.434638 173.012484 -31.577214 -6.866634 5.962210 19.070396 6.710306 0.648308 2.512374 0.634485 1.077180 4.069380 1.029188 4.976510 16.475156 4.786611 -2.905183 17.427349 1.463779 -5.863335 -3.343202 3.650149 -2.701783 -3.082815 -6.532917 3.487867 -1.218004 -4.662230 -134.494828 -62.205553 137.305810 3.735514 -1.837626 75.414498 -9.113592 -1.480458 -0.314473 6.205002 -5.317234 1.107611 116.924798 -58.863519 -130.837243 5.323019 22.136937 -89.370622 -0.901658 -48.852717 10.537814 -122.451733 84.527631 -110.783744 -1.391854 -13.460201 -3.791196 -0.112903 0.966065 -0.060685 -9.772218 -52.808257 17.347584 -153.735852 80.846165 -161.334261 0.590634 -16.575580 7.728518 -0.338625 -0.642722 -0.144580
18.527807 49.952997 56.435184 172.994965 -31.570561 -6.843626 5.972686 19.108557 6.723746 0.650021 2.492540 0.621502 1.078434 4.061349 1.023226 4.978809 16.483207 4.790859 -2.891979 17.464286 1.474559 -5.800156 -3.166483 3.684556 -2.705685 -3.069808 -6.526211 3.508133 -1.191450 -4.627964 -133.868853 -62.013513 136.744029 3.645449 -1.800494 75.328427 -9.094513 -1.444089 -0.294546 6.195877 -5.356506 1.088790 117.303226 -58.879417 -131.215571 5.472312 21.889350 -89.072938 -0.914556 -48.861964 10.524386 -122.544402 84.521466 -110.879822 -1.370197 -13.459083 -3.806355 -0.132275 0.945679 -0.067417 -9.740491 -52.816839 17.339484 -153.692938 80.843251 -161.305999 0.573068 -16.574986 7.744134 -0.328925 -0.640640 -0.144179
18.525490 49.952117 56.436460 172.977262 -31.562795 -6.822231 5.980181 19.119394 6.721650 0.651157 2.496724 0.623529 1.080890 4.053408 1.018741 4.986430 16.504873 4.816109 -2.857080 17.541340 1.500437 -5.762981 -3.104108 3.699503 -2.713858 -3.070314 -6.538388 3.517918 -1.195127 -4.622482 -133.227591 -61.851728 136.150664 3.576219 -1.750081 75.302941 -9.094656 -1.470350 -0.315496 6.238344 -5.328818 1.136195 117.643366 -58.874058 -131.589541 5.550937 21.696653 -88.894312 -0.932380 -48.872693 10.514022 -122.618346 84.512727 -110.959113 -1.346476 -13.455432 -3.819466 -0.156036 0.928462 -0.076494 -9.714781 -52.827840 17.336416 -153.566405 80.834102 -161.200963 0.578969 -16.570247 7.764177 -0.325367 -0.644724 -0.144489
18.522807 49.951178 56.438195 172.958077 -31.556108 -6.807076 5.991392 19.130325 6.727307 0.652472 2.501630 0.625671 1.082188 4.058476 1.019518 4.991444 16.514314 4.825969 -2.815088 17.604157 1.531907 -5.722263 -3.058748 3.713996 -2.728011 -2.985874 -6.488135 3.542395 -1.226167 -4.634937 -132.814934 -61.707890 135.763598 3.537065 -1.696169 75.340933 -9.070332 -1.462472 -0.305341 6.237122 -5.351986 1.141982 117.945475 -58.909373 -131.909846 5.566380 21.581576 -88.822187 -0.958343 -48.882742 10.516993 -122.727223 84.515302 -111.084967 -1.308709 -13.449196 -3.824725 -0.190441 0.919514 -0.090018 -9.697693 -52.838562 17.334888 -153.527659 80.829085 -161.173933 0.587706 -16.567461 7.770128 -0.328609 -0.648047 -0.142521
18.519019 49.950289 56.439990 172.934323 -31.551279 -6.790690 6.009171 19.144078 6.735406 0.654001 2.506932 0.628199 1.081191 4.063657 1.023116 4.996139 16.527421 4.835327 -2.778289 17.641282 1.549979 -5.668328 -2.996218 3.730912 -2.740370 -2.945635 -6.460784 3.564592 -1.216039 -4.624694 -132.487461 -61.576711 135.450552 3.529081 -1.649110 75.434853 -9.045495 -1.467322 -0.298185 6.219343 -5.382560 1.124189 118.197713 -58.975618 -132.183491 5.525188 21.528865 -88.835219 -0.981428 -48.890294 10.523489 -122.806317 84.516793 -111.183759 -1.271799 -13.447845 -3.827185 -0.182111 0.908393 -0.100622 -9.674662 -52.848593 17.330518 -153.525879 80.825199 -161.175160 0.571657 -16.561773 7.775671 -0.307239 -0.652020 -0.140126
18.515625 49.949617 56.442111 172.917859 -31.545843 -6.786879 6.024880 19.159482 6.754144 0.655462 2.497630 0.621821 1.084345 4.083700 1.034720 5.016690 16.574917 4.879096 -2.760742 17.643990 1.541170 -5.608786 -2.930127 3.743230 -2.765617 -2.963950 -6.473080 3.572782 -1.204264 -4.611832 -132.175734 -61.455760 135.153257 3.540960 -1.618347 75.576289 -9.009816 -1.465930 -0.295221 6.176688 -5.459751 1.084058 118.392712 -59.029032 -132.419418 5.448813 21.508365 -88.916371 -1.018919 -48.893196 10.544176 -122.741920 84.501156 -111.130422 -1.245729 -13.452915 -3.833681 -0.156788 0.903591 -0.107710 -9.660469 -52.857949 17.332202 -153.527369 80.822607 -161.180549 0.582525 -16.566846 7.775487 -0.314398 -0.649675 -0.133286
18.512322 49.949889 56.443259 172.913427 -31.546734 -6.793701 6.032495 19.177408 6.775735 0.657045 2.493468 0.618386 1.092085 4.146359 1.072791 5.012381 16.553902 4.866729 -2.724262 17.682126 1.552897 -5.543738 -2.860716 3.750621 -2.778819 -2.954184 -6.467711 3.567548 -1.186893 -4.597324 -131.892671 -61.336507 134.891077 3.558382 -1.604085 75.760053 -8.990633 -1.453494 -0.289148 6.174174 -5.488244 1.117985 118.537209 -58.999045 -132.634258 5.369748 21.496565 -89.054313 -1.065642 -48.882751 10.566229 -122.599388 84.471454 -110.986569 -1.219474 -13.469522 -3.856142 -0.170405 0.898763 -0.101818 -9.661612 -52.858757 17.342779 -153.463906 80.815248 -161.122167 0.586937 -16.570799 7.784633 -0.308674 -0.647152 -0.133617
18.507839 49.950286 56.444329 172.908824 -31.546279 -6.796207 6.038104 19.182318 6.784973 0.657302 2.518468 0.633847 1.095209 4.145732 1.070708 5.027272 16.590076 4.898565 -2.724539 17.660889 1.531530 -5.444910 -2.739641 3.762732 -2.792625 -2.961006 -6.471219 3.548663 -1.164414 -4.582144 -131.616116 -61.215449 134.645617 3.570591 -1.599842 75.982646 -8.996396 -1.497023 -0.309316 6.168133 -5.509352 1.110940 118.679360 -59.021967 -132.837729 5.307992 21.477640 -89.233552 -1.100250 -48.873699 10.581737 -122.564638 84.475743 -110.963928 -1.200145 -13.491109 -3.857732 -0.180903 0.914626 -0.110011 -9.654498 -52.861159 17.341448 -153.462444 80.814383 -161.122122 0.582298 -16.574053 7.792621 -0.322815 -0.645334 -0.135110
18.504188 49.950593 56.446357 172.898945 -31.539622 -6.803003 6.053002 19.198479 6.813185 0.658963 2.524620 0.636857 1.093068 4.124989 1.057547 5.042470 16.627844 4.931944 -2.716615 17.658538 1.520428 -5.341649 -2.620569 3.770515 -2.803814 -2.981058 -6.484108 3.524320 -1.113849 -4.544336 -131.335039 -61.095044 134.407089 3.564508 -1.599384 76.227206 -8.997786 -1.521126 -0.320506 6.165144 -5.504984 1.138638 118.760524 -58.968844 -133.005256 5.264838 21.449679 -89.432566 -1.120002 -48.873901 10.596621 -122.431941 84.462878 -110.822519 -1.188154 -13.508166 -3.873761 -0.157435 0.910001 -0.096059 -9.604686 -52.877715 17.304197 -153.550778 80.818073 -161.174605 0.592430 -16.584165 7.795280 -0.340301 -0.639094 -0.142074
18.501373 49.951238 56.448485 172.889689 -31.531514 -6.815183 6.068541 19.227675 6.852974 0.660603 2.539782 0.645605 1.098303 4.107697 1.046778 5.040153 16.634246 4.945324 -2.624036 17.767130 1.559245 -5.308320 -2.621146 3.755697 -2.821124 -2.957337 -6.468399 3.504725 -1.105664 -4.538459 -131.034812 -60.975412 134.158892 3.534302 -1.596255 76.463676 -8.995337 -1.512388 -0.320238 6.165056 -5.487948 1.210596 118.745353 -58.801303 -133.112733 5.238350 21.423754 -89.623995 -1.143268 -48.875093 10.617697 -122.304565 84.451412 -110.686221 -1.171520 -13.524382 -3.887062 -0.143161 0.922078 -0.094007 -9.592640 -52.889510 17.303493 -153.616765 80.820576 -161.224100 0.598910 -16.593535 7.794137 -0.340616 -0.635247 -0.145953
18.497617 49.952422 56.449506 172.885081 -31.527113 -6.822132 6.071244 19.247796 6.874869 0.662164 2.537976 0.645054 1.102202 4.117976 1.052919 5.037684 16.631144 4.948927 -2.562143 17.829946 1.580372 -5.241061 -2.581772 3.742098 -2.838744 -2.925535 -6.446772 3.494486 -1.099032 -4.535028 -130.691555 -60.843931 133.877707 3.497640 -1.579541 76.662830 -8.996520 -1.441462 -0.281204 6.172376 -5.529309 1.219523 118.618889 -58.618748 -133.147833 5.233174 21.410866 -89.789800 -1.158170 -48.872284 10.620922 -122.265469 84.453587 -110.641454 -1.145372 -13.539869 -3.892564 -0.150300 0.932250 -0.099356 -9.577220 -52.897501 17.294807 -153.666443 80.822432 -161.259829 0.592949 -16.596824 7.793787 -0.332242 -0.633255 -0.143964
18.494313 49.954145 56.449750 172.884103 -31.525712 -6.830996 6.072588 19.263342 6.894284 0.662536 2.540776 0.647188 1.100630 4.127135 1.057653 5.037007 16.612753 4.936045 -2.511290 17.877353 1.604052 -5.161865 -2.535262 3.729751 -2.846128 -2.911828 -6.437465 3.482178 -1.061978 -4.508592 -130.285257 -60.687746 133.548551 3.475321 -1.538805 76.810884 -9.000233 -1.411644 -0.256993 6.180510 -5.524196 1.248785 118.379032 -58.417556 -133.109703 5.253691 21.416142 -89.926257 -1.171087 -48.858142 10.611897 -122.261426 84.477233 -110.630984 -1.101272 -13.570115 -3.889312 -0.180896 0.951915 -0.115883 -9.572399 -52.899256 17.294795 -153.726687 80.825284 -161.315817 0.588569 -16.601552 7.796356 -0.333923 -0.630953 -0.141524
18.491667 49.956008 56.449801 172.877129 -31.524241 -6.837789 6.080962 19.268624 6.910062 0.661946 2.551399 0.654461 1.100522 4.131780 1.061155 5.037428 16.619252 4.946920 -2.495482 17.872298 1.589741 -5.064687 -2.485440 3.719133 -2.871477 -2.888729 -6.423186 3.484669 -1.060427 -4.517409 -129.832498 -60.511602 133.188977 3.465376 -1.474818 76.911915 -9.008053 -1.412539 -0.249297 6.188210 -5.515234 1.278031 118.035159 -58.184338 -132.995441 5.295714 21.444869 -90.033838 -1.172660 -48.851894 10.607327 -122.201736 84.479248 -110.553425 -1.084618 -13.586340 -3.893939 -0.168227 0.957067 -0.119980 -9.574705 -52.898067 17.308262 -153.796725 80.828178 -161.390502 0.577219 -16.607469 7.804118 -0.334225 -0.629630 -0.142800
18.490510 49.957610 56.450505 172.870850 -31.516973 -6.851249 6.088979 19.280213 6.938399 0.664978 2.544920 0.651422 1.098439 4.159925 1.083317 5.038663 16.620112 4.962145 -2.490283 17.850650 1.553763 -5.029555 -2.476940 3.710219 -2.894280 -2.892720 -6.438689 3.483259 -1.048360 -4.525486 -129.376507 -60.331396 132.833810 3.453869 -1.401592 76.977313 -9.016468 -1.446531 -0.275816 6.185107 -5.494120 1.324151 117.602962 -57.922007 -132.810443 5.349483 21.506686 -90.119131 -1.181745 -48.850579 10.607521 -122.049556 84.457283 -110.369410 -1.057464 -13.599145 -3.916583 -0.154757 0.957903 -0.115076 -9.578852 -52.906198 17.327109 -153.832193 80.827703 -161.421862 0.569594 -16.607075 7.813208 -0.331990 -0.632461 -0.146693
